<svg height="511pt" fill="#787878" viewBox="0 -3 511.99922 511" width="511pt" xmlns="http://www.w3.org/2000/svg"><path d="m511.742188 240.972656c-1.460938-12.304687-8.429688-23.054687-15.441407-33.015625-32.492187-46.136719-70.382812-89.050781-107.027343-130.550781-13.828126-15.660156-28.125-31.847656-45.019532-45.042969-.785156-.609375-1.574218-1.210937-2.371094-1.800781-.0625-.074219-.109374-.152344-.175781-.226562-.40625-.449219-.902343-.757813-1.4375-.949219-12.515625-9.035157-26.4375-15.949219-39.957031-22.644531-3.839844-1.90625-7.808594-3.875-11.671875-5.855469-1.195313-.609375-2.632813-.492188-3.714844.304687-1.078125.796875-1.613281 2.136719-1.378906 3.457032.796875 4.511718 1.480469 9.179687 2.144531 13.695312 2.335938 15.894531 4.75 32.328125 12.578125 46.945312 8.972657 16.742188 21.375 31.25 33.371094 45.273438l121.613281 142.210938c4.878906 5.707031 9.921875 11.601562 16.566406 15.898437 5.496094 3.554687 11.445313 5.402344 17.0625 5.402344 2.355469 0 4.65625-.324219 6.835938-.988281 10.21875-3.089844 20.007812-15.398438 18.023438-32.113282zm-65.097657-6.804687-4.808593-5.625c9.289062-.835938 18.140624-4.675781 25.101562-10.925781 6.128906-5.507813 10.546875-12.675782 12.761719-20.558594 1.21875 1.648437 2.433593 3.300781 3.640625 4.957031-.214844.359375-.378906.761719-.453125 1.199219-1.460938 8.40625-6.007813 16.40625-12.484375 21.957031-6.476563 5.550781-15.082032 8.824219-23.609375 8.980469-.050781 0-.097657.011718-.148438.015625zm-10.746093-12.5625c9.351562-1.046875 18.441406-5.3125 25.179687-11.863281 5.945313-5.78125 10.152344-13.445313 11.964844-21.570313 1.175781 1.546875 2.34375 3.105469 3.511719 4.660156-1.621094 8.28125-6.054688 16.152344-12.320313 21.78125-6.628906 5.953125-15.535156 9.605469-24.4375 10.019531-.378906.019532-.722656.148438-1.015625.339844zm-6.257813-7.320313c9.523437-2.214844 18.277344-7.347656 24.832031-14.621094 5.425782-6.015624 9.238282-13.378906 11.089844-21.238281 1.390625 1.785157 2.765625 3.582031 4.144531 5.378907-1.082031 8.632812-5.210937 16.980468-11.445312 23.039062-6.496094 6.316406-15.40625 10.285156-24.441407 10.894531-.351562.023438-.671874.144531-.949218.324219zm-45.667969-132.203125c25.371094 28.734375 51.339844 58.152344 75.65625 88.800781-.699218 8.390626-4.027344 16.460938-9.421875 22.910157l-122.15625-138.015625c3.941407-.25 7.792969-1.921875 10.511719-4.925782 2.476562-2.734374 4.488281-6.175781 5.363281-9.660156 14.683594 12.183594 27.5625 26.753906 40.046875 40.890625zm-86.796875-69.007812c2.644531 1.308593 5.300781 2.628906 7.960938 3.96875-1.386719 5.074219-5.753907 9.382812-10.871094 10.597656-.5625-3.445313-1.074219-6.898437-1.578125-10.324219-.335938-2.304687-.679688-4.644531-1.042969-6.992187 1.855469.929687 3.707031 1.847656 5.53125 2.75zm-2.230469 18.546875c6.4375-1.417969 11.84375-6.472656 13.851563-12.71875 9.707031 4.980468 19.316406 10.335937 28.058594 16.738281 1.566406 2.792969-1 7.671875-3.53125 10.464844-2.703125 2.988281-7.925781 3.519531-11.175781 1.136719-1.121094-.820313-2.609376-.90625-3.820313-.230469-1.207031.679687-1.90625 2.003906-1.789063 3.382812.28125 3.320313-.828124 6.828125-2.976562 9.378907-1.949219 2.316406-4.824219 3.917968-7.824219 4.40625-.417969-.742188-.835937-1.480469-1.234375-2.230469-5-9.328125-7.65625-19.746094-9.558594-30.328125zm14.585938 38.917968c3.652344-1.121093 6.96875-3.273437 9.441406-6.214843 1.972656-2.347657 3.363282-5.132813 4.089844-8.085938l124.382812 140.53125c-5.796874 5.660157-13.238281 9.542969-21.226562 11.015625-.582031.105469-1.097656.363282-1.53125.707032l-87.671875-102.519532c-9.613281-11.242187-19.492187-22.800781-27.484375-35.433594zm182.140625 195.785157c-5.394531 1.632812-11.957031.328125-18.011719-3.585938-5.78125-3.738281-10.484375-9.238281-15.035156-14.554687l-6.324219-7.398438c8.34375-1.179687 16.253907-4.71875 22.699219-10.246094 6.507812-5.578124 11.246094-12.941406 13.664062-21.105468.617188.867187 1.242188 1.726562 1.855469 2.597656 6.761719 9.601562 12.933594 19.101562 14.199219 29.773438 1.160156 9.757812-3.402344 21.597656-13.046875 24.519531zm0 0"/><path d="m372.964844 212.226562c-5.289063-3.226562-11.503906-3.121093-16.5-3.027343l-236.414063 4.164062c-6.511719.113281-13.027343.222657-19.542969.328125-12.8125.207032-26.066406.425782-39.101562.703125-1.210938.027344-2.5.027344-3.832031.03125-9.359375.015625-22.179688.039063-29.0625 8.679688-7.265625 9.117187-6.265625 25.472656-5.460938 38.613281.246094 4.023438.476563 7.824219.425781 10.828125l-3.160156 191.285156c-.121094 7.285157.246094 15.496094 6.15625 20.746094 5.242188 4.660156 12.730469 4.699219 17.683594 4.722656l315.042969 1.6875c.394531 0 .804687.003907 1.222656.003907 4.503906 0 10.226563-.25 14.816406-3.542969 7.007813-5.023438 7.972657-13.976563 7.976563-22.902344l.035156-224.839844c0-10.484375-1.21875-21.949219-10.285156-27.480469zm-138.894532 6.195313 29.546876-.519531c-.054688.230468-.089844.46875-.097657.714844l-1.640625 48.046874-14.171875-15.734374c-.726562-.804688-1.765625-1.230469-2.855469-1.160157-1.082031.066407-2.066406.628907-2.679687 1.519531l-10.445313 15.136719zm-202.90625 260.871094c-3.667968-3.257813-3.875-9.628907-3.78125-15.34375l3.164063-191.285157c.050781-3.277343-.1875-7.210937-.441406-11.371093-.730469-11.9375-1.636719-26.789063 3.9375-33.785157 4.761719-5.980468 15.175781-5.996093 23.542969-6.011718 1.382812-.003906 2.71875-.003906 3.972656-.03125 13.019531-.277344 26.261718-.496094 39.066406-.707032 6.519531-.105468 13.035156-.210937 19.550781-.324218l77.621094-1.371094-4.589844 262.765625c-.003906.425781.074219.828125.203125 1.207031l-149.214844-.800781c-5.152343-.027344-10.027343-.273437-13.03125-2.941406zm344.980469-14.746094c0 7.042969-.609375 13.992187-5.027343 17.160156-2.910157 2.089844-7.101563 2.238281-11.878907 2.210938l-159.179687-.847657c.125-.351562.207031-.722656.214844-1.117187l4.59375-263.015625 22.117187-.390625-2.921875 59.921875c-.078125 1.578125.902344 3.015625 2.398438 3.523438.371093.125.753906.183593 1.128906.183593 1.140625 0 2.238281-.550781 2.910156-1.527343l14.949219-21.664063 17.035156 18.914063c.964844 1.070312 2.484375 1.449218 3.835937.957031 1.355469-.496094 2.273438-1.761719 2.324219-3.203125l1.941407-56.789063c.011718-.378906-.050782-.734375-.148438-1.078125l86.152344-1.519531c5.1875-.089844 9.417968-.003906 12.691406 1.996094 6.082031 3.710937 6.898438 12.925781 6.898438 21.445312zm0 0"/><path d="m390.605469 198.179688c-5.742188-3.507813-12.550781-3.390626-18.019531-3.292969l-61.074219 1.078125c-7.988281-25.207032-16.449219-49.957032-24.640625-73.902344-9.609375-28.109375-19.546875-57.167969-28.753906-87.066406-3.492188-11.34375-7.785157-22.867188-18.324219-28.195313-10.386719-5.25-22.082031-2.03125-33.175781 1.710938l-190.6875 64.410156c-4.316407 1.457031-11.542969 3.894531-14.554688 10.207031-2.828125 5.9375-.757812 12.40625 1.402344 18.003906l38.4375 99.535157c-10.582032.03125-23.277344.417969-30.464844 9.4375-7.933594 9.957031-6.835938 27.941406-5.953125 42.390625.273437 4.445312.53125 8.648437.472656 11.980468l-3.488281 211.210938c-.132812 7.960938.261719 16.933594 6.671875 22.625 5.6875 5.054688 13.871094 5.097656 19.285156 5.125l347.863281 1.859375c.4375.003906.882813.007813 1.34375.007813 4.925782 0 11.175782-.273438 16.148438-3.84375 7.601562-5.453126 8.652344-15.230469 8.652344-24.984376l.039062-248.269531c.003906-11.472656-1.324218-24.015625-11.179687-30.027343zm-382.847657-112.007813c1.589844-3.335937 6.023438-5.066406 10.433594-6.554687l190.691406-64.40625c9.667969-3.265626 19.777344-6.117188 27.722657-2.101563 8.066406 4.078125 11.710937 14.078125 14.757812 23.96875 9.238281 30 19.195313 59.113281 28.820313 87.269531 7.957031 23.269532 16.171875 47.308594 23.953125 71.746094l-192.59375 3.394531c-7.222657.125-14.441407.246094-21.664063.363281-13.476562.21875-27.390625.449219-41.117187.738282l-39.390625-102.003906c-1.703125-4.417969-3.234375-9.015626-1.613282-12.414063zm386.917969 390.300781c0 7.871094-.691406 15.652344-5.703125 19.246094-3.304687 2.371094-8.003906 2.550781-13.335937 2.511719l-347.859375-1.859375c-5.761719-.03125-11.21875-.308594-14.632813-3.34375-4.167969-3.703125-4.402343-10.832032-4.296875-17.222656l3.488282-211.214844c.0625-3.605469-.203126-7.9375-.484376-12.527344-.808593-13.238281-1.8125-29.71875 4.425782-37.554688 5.375-6.738281 16.96875-6.761718 26.285156-6.777343 1.527344-.003907 2.996094-.003907 4.378906-.035157 14.347656-.308593 28.941406-.542968 43.050782-.777343 7.226562-.117188 14.453124-.234375 21.675781-.363281l261.042969-4.597657c.847656-.015625 1.671874-.027343 2.476562-.027343 4.675781 0 8.582031.355468 11.734375 2.28125 6.871094 4.195312 7.796875 14.484374 7.792969 23.996093zm0 0"/><path d="m482.253906 334.195312c-.15625-1.273437-.234375-3.023437-.320312-4.878906-.261719-5.757812-.558594-12.28125-3.175782-16.238281-4.769531-7.210937-17.0625-6.625-26.039062-6.195313-2.171875.105469-4.222656.203126-5.714844.160157-12.070312-.332031-21.152344 2.914062-26.273437 9.410156-5.488281 6.953125-5.523438 16.320313-5.550781 23.15625l-.394532 101.464844c-.027344 7.132812.378906 14.53125 5.566406 19.726562 5.214844 5.226563 13.097657 5.613281 18.316407 5.871094l26.964843 1.332031c1.164063.054688 2.472657.121094 3.871094.121094 4.171875 0 9.085938-.582031 12.972656-3.671875 5.863282-4.660156 6.652344-12.34375 6.632813-19.949219-.078125-29.476562-1.582031-59.300781-4.46875-88.644531-.707031-7.199219-1.511719-14.488281-2.386719-21.664063zm-60.296875 80.316407 59.332031-4.546875c.148438 3.714844.277344 7.425781.382813 11.136718l-59.699219 3.382813c-.019531 0-.035156.007813-.054687.007813zm54.75-66.582031c.308594 2.878906.617188 5.757812.898438 8.617187.003906.042969.007812.082031.011719.121094l-55.4375 1.152343.03125-8.785156 54.375-1.089844c.042968 0 .078124-.011718.121093-.015624zm-54.542969 13.933593 55.824219-1.160156c1.40625 15 2.449219 30.109375 3.121094 45.226563l-59.136719 4.53125zm4.117188-41.03125c4.320312-5.480469 12.453125-6.742187 19.03125-6.742187.507812 0 1.003906.007812 1.492188.023437 1.757812.042969 3.941406-.054687 6.253906-.167969 6.453125-.308593 17.25-.824218 19.804687 3.03125 1.539063 2.328126 1.8125 8.300782 2.007813 12.660157.09375 1.992187.179687 3.875.363281 5.414062.238281 1.9375.453125 3.890625.679687 5.839844l-53.671874 1.078125.007812-2.332031c.027344-7.53125.351562-14.144531 4.03125-18.804688zm51.792969 138.089844c-2.859375 2.273437-7.351563 2.253906-12.09375 2.019531l-26.964844-1.328125c-5.46875-.269531-10.628906-.765625-13.664063-3.804687-3.265624-3.277344-3.519531-9.0625-3.5-14.707032l.039063-9.582031c.09375.007813.183594.027344.277344.027344.066406 0 .136719 0 .203125-.003906l59.460937-3.371094c.109375 5.457031.191407 10.910156.207031 16.351563.015626 5.828124-.457031 11.605468-3.964843 14.398437zm0 0"/><path d="m178.082031 267.953125c-.003906 0-.011719 0-.015625 0l-127.417968.792969c-1.113282.007812-2.011719.917968-2.007813 2.035156.007813 1.109375.910156 2.003906 2.023437 2.003906h.011719l127.417969-.792968c1.113281-.007813 2.011719-.917969 2.007812-2.03125-.007812-1.113282-.914062-2.007813-2.019531-2.007813zm0 0"/><path d="m178.082031 289.070312c-.003906 0-.011719 0-.015625 0l-127.417968.792969c-1.113282.007813-2.011719.917969-2.007813 2.03125.007813 1.109375.910156 2.007813 2.023437 2.007813h.011719l127.417969-.792969c1.113281-.007813 2.011719-.917969 2.007812-2.035156-.007812-1.109375-.914062-2.003907-2.019531-2.003907zm0 0"/><path d="m178.082031 310.1875c-.003906 0-.011719 0-.015625 0l-127.417968.792969c-1.113282.007812-2.011719.917969-2.007813 2.03125.007813 1.109375.910156 2.007812 2.023437 2.007812h.011719l127.417969-.792969c1.113281-.007812 2.011719-.917968 2.007812-2.035156-.007812-1.109375-.914062-2.003906-2.019531-2.003906zm0 0"/><path d="m178.082031 331.300781c-.003906 0-.011719 0-.015625 0l-127.417968.796875c-1.113282.007813-2.011719.917969-2.007813 2.03125.007813 1.109375.910156 2.007813 2.023437 2.007813h.011719l127.417969-.796875c1.113281-.003906 2.011719-.914063 2.007812-2.03125-.007812-1.109375-.914062-2.007813-2.019531-2.007813zm0 0"/><path d="m178.082031 352.417969c-.003906 0-.011719 0-.015625 0l-127.417968.796875c-1.113282.007812-2.011719.917968-2.007813 2.03125.007813 1.109375.910156 2.007812 2.023437 2.007812h.011719l127.417969-.796875c1.113281-.003906 2.011719-.914062 2.007812-2.03125-.007812-1.109375-.914062-2.007812-2.019531-2.007812zm0 0"/><path d="m178.082031 373.535156c-.003906 0-.011719 0-.015625 0l-127.417968.796875c-1.117188.007813-2.015626.917969-2.007813 2.03125.007813 1.109375.910156 2.007813 2.019531 2.007813h.015625l127.417969-.796875c1.113281-.003907 2.011719-.914063 2.003906-2.03125-.003906-1.109375-.910156-2.007813-2.015625-2.007813zm0 0"/><path d="m178.082031 394.652344c-.003906 0-.011719 0-.015625 0l-127.417968.796875c-1.113282.007812-2.011719.917969-2.007813 2.03125.007813 1.109375.910156 2.007812 2.023437 2.007812h.011719l127.417969-.796875c1.113281-.003906 2.011719-.914062 2.007812-2.03125-.007812-1.113281-.914062-2.007812-2.019531-2.007812zm0 0"/><path d="m178.082031 415.769531c-.003906 0-.011719 0-.015625 0l-127.417968.796875c-1.113282.003906-2.011719.914063-2.007813 2.03125.007813 1.109375.910156 2.007813 2.023437 2.007813h.011719l127.417969-.796875c1.113281-.007813 2.011719-.917969 2.007812-2.03125-.007812-1.113282-.914062-2.007813-2.019531-2.007813zm0 0"/><path d="m351.707031 289.070312c-.003906 0-.007812 0-.011719 0l-127.417968.792969c-1.117188.007813-2.015625.917969-2.007813 2.03125.007813 1.109375.910157 2.007813 2.019531 2.007813h.011719l127.417969-.792969c1.117188-.007813 2.015625-.917969 2.007812-2.035156-.007812-1.109375-.910156-2.003907-2.019531-2.003907zm0 0"/><path d="m351.707031 310.1875c-.003906 0-.007812 0-.011719 0l-127.417968.792969c-1.117188.007812-2.015625.917969-2.007813 2.03125.007813 1.109375.910157 2.007812 2.019531 2.007812h.011719l127.417969-.792969c1.117188-.007812 2.015625-.917968 2.007812-2.035156-.007812-1.109375-.910156-2.003906-2.019531-2.003906zm0 0"/><path d="m351.707031 331.300781c-.003906 0-.007812 0-.011719 0l-127.417968.796875c-1.117188.007813-2.015625.917969-2.007813 2.03125.007813 1.109375.910157 2.007813 2.019531 2.007813h.011719l127.417969-.796875c1.117188-.003906 2.015625-.914063 2.007812-2.03125-.007812-1.109375-.910156-2.007813-2.019531-2.007813zm0 0"/><path d="m351.707031 352.417969c-.003906 0-.007812 0-.011719 0l-127.417968.796875c-1.117188.007812-2.015625.917968-2.007813 2.03125.007813 1.109375.910157 2.007812 2.019531 2.007812h.011719l127.417969-.796875c1.117188-.003906 2.015625-.914062 2.007812-2.03125-.007812-1.109375-.910156-2.007812-2.019531-2.007812zm0 0"/><path d="m351.707031 373.535156c-.003906 0-.007812 0-.011719 0l-127.417968.796875c-1.117188.007813-2.015625.917969-2.007813 2.03125.007813 1.109375.910157 2.007813 2.019531 2.007813h.011719l127.417969-.796875c1.117188-.003907 2.015625-.914063 2.007812-2.03125-.007812-1.109375-.910156-2.007813-2.019531-2.007813zm0 0"/><path d="m351.707031 394.652344c-.003906 0-.007812 0-.011719 0l-127.417968.796875c-1.117188.007812-2.015625.917969-2.007813 2.03125.007813 1.109375.910157 2.007812 2.019531 2.007812h.011719l127.417969-.796875c1.117188-.003906 2.015625-.914062 2.007812-2.03125-.007812-1.113281-.910156-2.007812-2.019531-2.007812zm0 0"/><path d="m351.707031 415.769531c-.003906 0-.007812 0-.011719 0l-127.417968.796875c-1.117188.003906-2.015625.914063-2.007813 2.03125.007813 1.109375.910157 2.007813 2.019531 2.007813h.011719l127.417969-.796875c1.117188-.007813 2.015625-.917969 2.007812-2.03125-.007812-1.113282-.910156-2.007813-2.019531-2.007813zm0 0"/><path d="m351.707031 436.886719c-.003906 0-.007812 0-.011719 0l-127.417968.796875c-1.117188.003906-2.015625.914062-2.007813 2.03125.007813 1.109375.910157 2.003906 2.019531 2.003906h.011719l127.417969-.792969c1.117188-.007812 2.015625-.917969 2.007812-2.03125-.007812-1.113281-.910156-2.007812-2.019531-2.007812zm0 0"/><path d="m178.082031 436.886719c-.003906 0-.011719 0-.015625 0l-127.417968.796875c-1.117188.003906-2.015626.914062-2.007813 2.03125.007813 1.109375.910156 2.003906 2.019531 2.003906h.015625l127.417969-.792969c1.113281-.007812 2.011719-.917969 2.003906-2.03125-.003906-1.113281-.910156-2.007812-2.015625-2.007812zm0 0"/><path d="m55.804688 111.496094c.214843 0 .429687-.035156.644531-.109375l150.222656-51.320313c1.054687-.363281 1.621094-1.511718 1.257813-2.566406-.359376-1.054688-1.503907-1.621094-2.5625-1.257812l-150.222657 51.320312c-1.058593.363281-1.621093 1.511719-1.257812 2.566406.285156.839844 1.074219 1.371094 1.917969 1.367188zm0 0"/><path d="m65.777344 129.679688c.210937 0 .429687-.035157.644531-.109376l150.222656-51.320312c1.054688-.363281 1.617188-1.511719 1.257813-2.566406-.359375-1.054688-1.503906-1.617188-2.5625-1.257813l-150.226563 51.320313c-1.054687.363281-1.617187 1.511718-1.257812 2.566406.289062.84375 1.078125 1.371094 1.921875 1.367188zm0 0"/><path d="m72.816406 150.796875c.210938 0 .429688-.035156.644532-.109375l150.222656-51.320312c1.054687-.363282 1.617187-1.511719 1.257812-2.566407-.359375-1.054687-1.503906-1.621093-2.5625-1.257812l-150.226562 51.320312c-1.054688.363281-1.617188 1.511719-1.257813 2.566407.289063.839843 1.078125 1.371093 1.921875 1.367187zm0 0"/><path d="m82.789062 168.980469c.210938 0 .429688-.035157.644532-.109375l150.222656-51.320313c1.054688-.363281 1.617188-1.511719 1.257812-2.566406-.359374-1.054687-1.503906-1.617187-2.5625-1.257813l-150.226562 51.320313c-1.054688.363281-1.617188 1.511719-1.257812 2.566406.289062.839844 1.078124 1.371094 1.921874 1.367188zm0 0"/></svg>